<?xml version="1.0" encoding="iso-8859-1"?>
<!-- Generator: Adobe Illustrator 19.0.0, SVG Export Plug-In . SVG Version: 6.00 Build 0)  -->
<svg version="1.1" id="Layer_1" xmlns="http://www.w3.org/2000/svg" xmlns:xlink="http://www.w3.org/1999/xlink" x="0px" y="0px"
	 viewBox="0 0 512 512" style="enable-background:new 0 0 512 512;" xml:space="preserve">
<g>
	<rect x="251.28" y="28.4" style="fill:#C9C9C9;" width="9.44" height="9.44"/>
	<path style="fill:#C9C9C9;" d="M260.72,455.28h-9.44v-18.96h9.44V455.28z M260.72,417.28h-9.44v-18.96h9.44V417.28z M260.72,379.36
		h-9.44V360.4h9.44V379.36z M260.72,341.44h-9.44v-18.96h9.44V341.44z M260.72,303.44h-9.44v-18.96h9.44V303.44z M260.72,265.52
		h-9.44v-18.96h9.44V265.52z M260.72,227.6h-9.44v-18.96h9.44V227.6z M260.72,189.6h-9.44v-18.96h9.44V189.6z M260.72,151.68h-9.44
		v-18.96h9.44V151.68z M260.72,113.76h-9.44V94.8h9.44V113.76z M260.72,75.76h-9.44V56.8h9.44V75.76z"/>
	<rect x="251.28" y="474.24" style="fill:#C9C9C9;" width="9.44" height="9.44"/>
	<rect x="452.96" y="130.56" style="fill:#C9C9C9;" width="9.44" height="9.44"/>
	<path style="fill:#C9C9C9;" d="M462.48,335.28h-9.44v-19.52h9.44V335.28z M462.48,296.24h-9.44v-19.52h9.44V296.24z M462.48,257.2
		h-9.44v-19.52h9.44V257.2z M462.48,218.16h-9.44v-19.52h9.44V218.16z M462.48,179.04h-9.44v-19.52h9.44V179.04z"/>
	<rect x="452.96" y="354.88" style="fill:#C9C9C9;" width="9.44" height="9.44"/>
	<path style="fill:#C9C9C9;" d="M256,262.96l-8.72-5.28l4.88-8.08l3.84,2.32l7.44-4.48l4.88,8.08L256,262.96z M231.04,247.92
		l-16.16-9.76l4.88-8.08l16.16,9.76L231.04,247.92z M284.56,245.68l-4.88-8.08l16.16-9.76l4.88,8.08L284.56,245.68z M198.72,228.32
		l-16.16-9.76l4.88-8.08l16.16,9.76L198.72,228.32z M316.96,226.16l-4.96-8.08l16.16-9.76l4.88,8.08L316.96,226.16z M166.32,208.8
		l-16.16-9.76l4.88-8.08l16.16,9.76L166.32,208.8z M349.28,206.64l-4.88-8.08l16.16-9.76l4.88,8.08L349.28,206.64z M133.92,189.28
		l-16.16-9.76l4.88-8.08l16.16,9.76L133.92,189.28z M381.68,187.04l-4.88-8.08l16.16-9.76l4.88,8.08L381.68,187.04z M101.52,169.68
		l-16.16-9.76l4.88-8.08l16.16,9.76L101.52,169.68z M414.08,167.52l-4.88-8.08l16.16-9.76l4.88,8.08L414.08,167.52z M69.2,150.16
		l-16.16-9.76l2-3.36l-2.96-5.52l16.72-8.88l4.4,8.32l-9.36,4.96L74,142.08L69.2,150.16z M446.4,148l-4.88-8.08l13.76-8.32l0.72,1.2
		l1.44-2.64l9.92,5.28L446.4,148z M436.24,129.6l-16.72-8.88l4.48-8.32l16.72,8.88L436.24,129.6z M89.92,122.08l-4.4-8.32
		l16.72-8.88l4.4,8.32L89.92,122.08z M402.88,111.84l-16.72-8.88l4.4-8.32l16.72,8.88L402.88,111.84z M123.28,104.32l-4.4-8.32
		l16.72-8.88l4.4,8.32L123.28,104.32z M369.44,94.16l-16.72-8.88l4.4-8.32l16.72,8.88L369.44,94.16z M156.72,86.64l-4.4-8.32
		l16.72-8.88l4.4,8.32L156.72,86.64z M336,76.4l-16.72-8.88l4.4-8.32l16.72,8.88L336,76.4z M190.16,68.88l-4.4-8.32l16.72-8.88
		l4.4,8.32L190.16,68.88z M302.64,58.64l-16.72-8.88l4.4-8.32l16.72,8.88L302.64,58.64z M223.52,51.12l-4.4-8.32l16.72-8.88
		l4.4,8.32L223.52,51.12z M269.2,40.96l-15.44-8.16l1.44-2.64l-2.64-5.04L256,23.2l17.68,9.36L269.2,40.96z"/>
	<path style="fill:#C9C9C9;" d="M256,491.76l-8.72-5.28l4.88-8.08l3.84,2.32l7.44-4.48l4.88,8.08L256,491.76z M231.04,476.72
		l-16.16-9.76l4.88-8.08l16.16,9.76L231.04,476.72z M284.56,474.56l-4.88-8.08l16.16-9.76l4.88,8.08L284.56,474.56z M198.72,457.2
		l-16.16-9.76l4.88-8.08l16.16,9.76L198.72,457.2z M316.88,454.96l-4.88-8.08l16.16-9.76l4.88,8.08L316.88,454.96z M166.32,437.6
		l-16.16-9.76l4.88-8.08l16.16,9.76L166.32,437.6z M349.28,435.44l-4.88-8.08l16.16-9.76l4.88,8.08L349.28,435.44z M133.92,418.08
		l-16.16-9.76l4.88-8.08L138.8,410L133.92,418.08z M381.68,415.92l-4.88-8.08l16.16-9.76l4.88,8.08L381.68,415.92z M101.52,398.56
		l-16.16-9.76l4.88-8.08l16.16,9.76L101.52,398.56z M414.08,396.4l-4.88-8.08l16.16-9.76l4.88,8.08L414.08,396.4z M69.12,378.96
		l-16.16-9.76l2-3.36L52,360.32l16.72-8.88l4.4,8.32l-9.36,4.96l10.16,6.16L69.12,378.96z M446.4,376.8l-4.88-8.08l13.76-8.32
		l0.72,1.2l1.44-2.64l9.92,5.28L446.4,376.8z M436.24,358.48l-16.72-8.88l4.48-8.4l16.72,8.88L436.24,358.48z M89.92,350.96
		l-4.4-8.32l16.72-8.88l4.4,8.32L89.92,350.96z M402.88,340.72l-16.72-8.88l4.4-8.32l16.72,8.88L402.88,340.72z M123.28,333.2
		l-4.4-8.32L135.6,316l4.4,8.32L123.28,333.2z M369.44,322.96l-16.72-8.88l4.4-8.32l16.72,8.88L369.44,322.96z M156.72,315.44
		l-4.4-8.32l16.72-8.88l4.4,8.32L156.72,315.44z M336.08,305.28l-16.72-8.88l4.4-8.4l16.72,8.88L336.08,305.28z M190.16,297.76
		l-4.4-8.32l16.72-8.88l4.4,8.32L190.16,297.76z M302.64,287.52l-16.72-8.88l4.4-8.32l16.72,8.88L302.64,287.52z M223.52,280
		l-4.4-8.32l16.72-8.88l4.4,8.32L223.52,280z M269.2,269.76l-15.44-8.16l1.44-2.64l-2.64-5.04l3.44-1.84l17.68,9.36L269.2,269.76z"
		/>
</g>
<g>
	<circle style="fill:#FF5F5F;" cx="457.76" cy="131.04" r="25.76"/>
	<circle style="fill:#FF5F5F;" cx="457.76" cy="364.48" r="25.76"/>
</g>
<g>
	<rect x="49.52" y="130.56" style="fill:#C9C9C9;" width="9.44" height="9.44"/>
	<path style="fill:#C9C9C9;" d="M59.04,335.28h-9.52v-19.52h9.44v19.52H59.04z M59.04,296.24h-9.52v-19.52h9.44v19.52H59.04z
		 M59.04,257.2h-9.52v-19.52h9.44v19.52H59.04z M59.04,218.16h-9.52v-19.52h9.44v19.52H59.04z M59.04,179.04h-9.52v-19.52h9.44
		v19.52H59.04z"/>
	<rect x="49.52" y="354.88" style="fill:#C9C9C9;" width="9.44" height="9.44"/>
</g>
<g>
	<circle style="fill:#FF5F5F;" cx="54.24" cy="131.04" r="25.76"/>
	<circle style="fill:#FF5F5F;" cx="54.24" cy="364.48" r="25.76"/>
	<circle style="fill:#FF5F5F;" cx="256" cy="256" r="25.76"/>
	<circle style="fill:#FF5F5F;" cx="256" cy="25.76" r="25.76"/>
	<circle style="fill:#FF5F5F;" cx="256" cy="486.24" r="25.76"/>
</g>
<g>
</g>
<g>
</g>
<g>
</g>
<g>
</g>
<g>
</g>
<g>
</g>
<g>
</g>
<g>
</g>
<g>
</g>
<g>
</g>
<g>
</g>
<g>
</g>
<g>
</g>
<g>
</g>
<g>
</g>
</svg>
