<?xml version="1.0" encoding="UTF-8"?>
<svg xmlns="http://www.w3.org/2000/svg" id="Layer_1" data-name="Layer 1" viewBox="0 0 200 68.65">
   <defs>
      <style>.cls-1{fill:#fff;}.cls-2{fill:#ea4335;}.cls-3{fill:#757575;}.cls-4{fill:#4285f4;}.cls-5{fill:#fbbc05;}.cls-6{fill:#34a853;}</style>
   </defs>
   <title>premierPartner-noshadow</title>
   <rect class="cls-1" width="200" height="68.56" />
   <rect class="cls-2" y="0.09" width="18.19" height="68.56" />
   <path class="cls-3" d="M36.16,59.47H32.6V31.79H42a8.73,8.73,0,0,1,6.09,2.34,8,8,0,0,1,0,11.79A8.73,8.73,0,0,1,42,48.26H36.16Zm0-14.61h6a4.63,4.63,0,0,0,3.6-1.51,4.77,4.77,0,0,0,0-6.65,4.59,4.59,0,0,0-3.6-1.51h-6Z" />
   <path class="cls-3" d="M59,60.09a7.46,7.46,0,0,1-5-1.74,5.78,5.78,0,0,1-2-4.6,5.7,5.7,0,0,1,2.4-4.86,9.72,9.72,0,0,1,5.91-1.75,10.11,10.11,0,0,1,5.14,1.16v-.55A4.21,4.21,0,0,0,64,44.41a5.11,5.11,0,0,0-3.51-1.26,5.46,5.46,0,0,0-2.81.74,3.82,3.82,0,0,0-1.72,2l-3.24-1.39a7.23,7.23,0,0,1,2.59-3.15,8.23,8.23,0,0,1,5.1-1.45,8.79,8.79,0,0,1,6,2.12,7.62,7.62,0,0,1,2.39,6V59.47h-3.4V56.84h-.15A7,7,0,0,1,59,60.09Zm.58-3.25a5.79,5.79,0,0,0,4-1.64,5.1,5.1,0,0,0,1.8-3.89,7,7,0,0,0-4.52-1.24A5.89,5.89,0,0,0,57,51.19a3.37,3.37,0,0,0-1.32,2.63A2.54,2.54,0,0,0,56.84,56,4.78,4.78,0,0,0,59.58,56.84Z" />
   <path class="cls-3" d="M76.21,40.53v3.09h.15A4.9,4.9,0,0,1,78.66,41a7.4,7.4,0,0,1,3.69-.95,12.19,12.19,0,0,1,1.28.08v3.48a14.18,14.18,0,0,0-1.43-.08A6,6,0,0,0,78,45a5.24,5.24,0,0,0-1.64,4.08V59.47H72.8V40.53ZM95.69,59.78a5.51,5.51,0,0,1-6.11-6.07V43.77H86.26V40.53h3.32v-5.8h3.56v5.8h4.64v3.24H93.14v9.67q0,3.09,2.55,3.09a3.75,3.75,0,0,0,1.62-.31l1.24,3.05A7.1,7.1,0,0,1,95.69,59.78Z" />
   <path class="cls-3" d="M104.77,40.53v2.62h.15a6.4,6.4,0,0,1,2.44-2.3,7.07,7.07,0,0,1,3.56-.94,6.7,6.7,0,0,1,5.37,2.16,8.59,8.59,0,0,1,1.85,5.8v11.6h-3.55V48.41c0-3.5-1.56-5.26-4.68-5.26a4.36,4.36,0,0,0-3.59,1.76,6.39,6.39,0,0,0-1.4,4.08V59.47h-3.55V40.53Z" />
   <path class="cls-3" d="M130.9,60.09a9.14,9.14,0,0,1-7-2.87A10.11,10.11,0,0,1,121.24,50a10.45,10.45,0,0,1,2.61-7.12,8.47,8.47,0,0,1,6.66-3,8.74,8.74,0,0,1,6.75,2.74A10.4,10.4,0,0,1,139.79,50l0,.65h-15a6.45,6.45,0,0,0,1.92,4.53,5.82,5.82,0,0,0,4.11,1.66A5.1,5.1,0,0,0,136,53.59l3.17,1.32a8.56,8.56,0,0,1-3,3.69A8.9,8.9,0,0,1,130.9,60.09ZM136,47.72a5,5,0,0,0-1.48-3.1,5.33,5.33,0,0,0-4.08-1.47A5.1,5.1,0,0,0,127,44.39a6.29,6.29,0,0,0-2,3.33Z" />
   <path class="cls-3" d="M146.59,59.47H143V40.53h3.4v3.09h.15a4.91,4.91,0,0,1,2.23-2.55,6.37,6.37,0,0,1,3.26-1,6.75,6.75,0,0,1,2.67.47l-1.35,3.32a5.43,5.43,0,0,0-1.9-.27,4.65,4.65,0,0,0-3.42,1.53,5.5,5.5,0,0,0-1.49,4Z" />
   <path class="cls-4" d="M40.7,25.45A8.61,8.61,0,0,1,32.09,17,8.61,8.61,0,0,1,40.7,8.47a8.1,8.1,0,0,1,5.82,2.34l-1.63,1.64a5.94,5.94,0,0,0-4.19-1.66,6.18,6.18,0,0,0,0,12.35A5.72,5.72,0,0,0,45,21.44a4.92,4.92,0,0,0,1.27-2.92H40.68V16.14h7.83a8.41,8.41,0,0,1,.13,1.51,7.66,7.66,0,0,1-2,5.42A7.75,7.75,0,0,1,40.7,25.45Z" />
   <path class="cls-2" d="M61,20a5.49,5.49,0,1,1-5.49-5.47A5.4,5.4,0,0,1,61,20Zm-2.4,0a3.1,3.1,0,1,0-6.18,0,3.1,3.1,0,1,0,6.18,0Z" />
   <path class="cls-5" d="M73.45,20A5.49,5.49,0,1,1,68,14.52,5.39,5.39,0,0,1,73.45,20Zm-2.4,0a3.09,3.09,0,1,0-6.17,0,3.09,3.09,0,1,0,6.17,0Z" />
   <path class="cls-4" d="M85.32,14.85v9.82c0,4-2.38,5.69-5.19,5.69a5.22,5.22,0,0,1-4.85-3.23l2.09-.87a3,3,0,0,0,2.76,1.95c1.8,0,2.92-1.12,2.92-3.21v-.79H83a3.72,3.72,0,0,1-2.88,1.24,5.47,5.47,0,0,1,0-10.93A3.77,3.77,0,0,1,83,15.74h.09v-.89ZM83.21,20a3.08,3.08,0,0,0-2.92-3.34,3.17,3.17,0,0,0-3,3.34,3.14,3.14,0,0,0,3,3.29A3.05,3.05,0,0,0,83.21,20Z" />
   <path class="cls-6" d="M90.05,9.05V25.12h-2.4V9.05Z" />
   <path class="cls-2" d="M99.84,21.79,101.7,23a5.44,5.44,0,0,1-4.56,2.42A5.35,5.35,0,0,1,91.72,20a5.2,5.2,0,0,1,5.15-5.47A5.07,5.07,0,0,1,101.55,18l.25.62-7.31,3a2.78,2.78,0,0,0,2.65,1.66A3.14,3.14,0,0,0,99.84,21.79Zm-5.74-2,4.89-2a2.13,2.13,0,0,0-2-1.16A3,3,0,0,0,94.1,19.82Z" />
   <path class="cls-1" d="M12.55,57.58v.89H5.64V56.11a2.19,2.19,0,0,1,.58-1.52A1.9,1.9,0,0,1,7.69,54a1.9,1.9,0,0,1,1.48.64,2.19,2.19,0,0,1,.58,1.52v1.47Zm-3.65,0V56.09a1.16,1.16,0,0,0-.37-.9,1.26,1.26,0,0,0-.84-.33,1.23,1.23,0,0,0-.83.33,1.16,1.16,0,0,0-.37.9v1.49Z" />
   <path class="cls-1" d="M12.55,51.09H5.64V48.73a2.17,2.17,0,0,1,.58-1.52,1.9,1.9,0,0,1,1.47-.64A1.88,1.88,0,0,1,9,47a2.07,2.07,0,0,1,.71,1.18l0,0,2.82-2h0v1.06l-2.8,1.86v1h2.8ZM8.92,50.2V48.77a1.25,1.25,0,0,0-.35-.91,1.12,1.12,0,0,0-.88-.39,1.25,1.25,0,0,0-.83.34,1.16,1.16,0,0,0-.37.9V50.2Z" />
   <path class="cls-1" d="M6.49,39.53v3.15H8.68V39.84h.83v2.84H11.7V39.53h.85v4H5.64v-4Z" />
   <path class="cls-1" d="M12.55,36.4H5.64v-.89L9.85,33.1v0L5.64,30.66v-.89h6.91v.89H8.45l-1.16,0v0l3.8,2.16v.53l-3.8,2.16v0l1.16,0h4.1Z" />
   <path class="cls-1" d="M12.55,26.45H5.64v-.89h6.91Z" />
   <path class="cls-1" d="M6.49,18.19v3.15H8.68V18.5h.83v2.84H11.7V18.19h.85v4H5.64v-4Z" />
   <path class="cls-1" d="M12.55,15.06H5.64V12.7a2.19,2.19,0,0,1,.58-1.52,1.9,1.9,0,0,1,1.47-.64A1.93,1.93,0,0,1,9,11a2.11,2.11,0,0,1,.71,1.18l0,0,2.82-1.94h0v1.05l-2.8,1.87v1h2.8Zm-3.63-.89V12.74a1.27,1.27,0,0,0-.35-.91,1.11,1.11,0,0,0-.88-.38,1.2,1.2,0,0,0-.83.34,1.13,1.13,0,0,0-.37.89v1.49Z" />
</svg>
